<svg data-v-423bf9ae="" xmlns="http://www.w3.org/2000/svg" viewBox="0 0 276.7959073748704 60" class="font"><!----><!----><!----><g data-v-423bf9ae="" id="757e5641-b4d2-41ab-939f-0f3b2067511f" fill="black" transform="matrix(6.1224488604322,0,0,6.1224488604322,-3.4285695866365984,-21.428570534675544)"><path d="M6.72 6.44C6.54 6.44 6.38 6.58 6.38 6.78L6.38 7.78C5.80 6.97 4.86 6.44 3.81 6.44C2.00 6.44 0.56 7.99 0.56 9.87C0.56 11.75 2.00 13.30 3.81 13.30C4.86 13.30 5.80 12.75 6.38 11.94L6.38 12.96C6.38 13.15 6.54 13.30 6.72 13.30C6.90 13.30 7.06 13.15 7.06 12.96L7.06 6.78C7.06 6.58 6.90 6.44 6.72 6.44ZM3.81 12.63C2.41 12.63 1.23 11.41 1.23 9.87C1.23 8.33 2.41 7.10 3.81 7.10C5.22 7.10 6.38 8.33 6.38 9.87C6.38 11.41 5.22 12.63 3.81 12.63ZM10.26 12.96L10.26 12.96C10.26 13.15 10.42 13.30 10.60 13.30L10.60 13.30C10.79 13.30 10.95 13.15 10.95 12.96L10.95 3.84L10.95 3.84C10.95 3.65 10.79 3.50 10.60 3.50L10.60 3.50C10.42 3.50 10.26 3.65 10.26 3.84L10.26 12.96ZM13.75 12.96L13.75 12.96C13.75 13.15 13.90 13.30 14.08 13.30L14.08 13.30C14.28 13.30 14.43 13.15 14.43 12.96L14.43 3.84L14.43 3.84C14.43 3.65 14.28 3.50 14.08 3.50L14.08 3.50C13.90 3.50 13.75 3.65 13.75 3.84L13.75 12.96ZM20.17 13.30L20.17 13.30C20.17 13.30 20.17 13.30 20.17 13.30L20.17 13.30C20.99 13.30 21.76 13.02 22.33 12.57L22.33 12.57C22.50 12.45 22.53 12.24 22.40 12.08L22.40 12.08C22.29 11.96 22.09 11.91 21.94 12.03L21.94 12.03L21.94 12.03C21.45 12.40 20.83 12.63 20.17 12.63L20.17 12.63C18.58 12.63 17.32 11.40 17.32 9.86L17.32 9.86C17.32 8.34 18.58 7.10 20.17 7.10L20.17 7.10C20.83 7.10 21.45 7.32 21.94 7.71L21.94 7.71C22.09 7.83 22.29 7.78 22.40 7.66L22.40 7.66C22.53 7.50 22.50 7.29 22.36 7.20L22.36 7.20C21.76 6.72 20.99 6.44 20.17 6.44L20.17 6.44C18.21 6.44 16.65 7.95 16.65 9.86L16.65 9.86C16.65 11.79 18.21 13.30 20.17 13.30ZM30.55 6.44C30.37 6.44 30.21 6.58 30.21 6.78L30.21 7.78C29.62 6.97 28.69 6.44 27.64 6.44C25.83 6.44 24.39 7.99 24.39 9.87C24.39 11.75 25.83 13.30 27.64 13.30C28.69 13.30 29.62 12.75 30.21 11.94L30.21 12.96C30.21 13.15 30.37 13.30 30.55 13.30C30.73 13.30 30.88 13.15 30.88 12.96L30.88 6.78C30.88 6.58 30.73 6.44 30.55 6.44ZM27.64 12.63C26.24 12.63 25.06 11.41 25.06 9.87C25.06 8.33 26.24 7.10 27.64 7.10C29.05 7.10 30.21 8.33 30.21 9.87C30.21 11.41 29.05 12.63 27.64 12.63ZM33.80 12.96C33.80 13.16 33.95 13.30 34.15 13.30C34.31 13.30 34.47 13.16 34.47 12.96L34.47 9.95C34.47 9.93 34.47 9.90 34.50 9.84C34.59 9.56 34.86 8.86 35.32 8.25C35.80 7.63 36.41 7.13 37.31 7.13C37.49 7.13 37.65 6.97 37.65 6.79C37.65 6.59 37.49 6.45 37.31 6.45C35.99 6.45 35.08 7.32 34.57 8.13C34.52 8.19 34.50 8.25 34.47 8.30L34.47 6.79C34.47 6.59 34.31 6.45 34.15 6.45C33.95 6.45 33.80 6.59 33.80 6.79L33.80 12.96ZM45.08 12.96C45.08 13.15 45.23 13.30 45.43 13.30C45.61 13.30 45.77 13.15 45.77 12.96L45.77 9.88L45.77 9.74L45.77 3.84C45.77 3.65 45.61 3.50 45.43 3.50C45.23 3.50 45.08 3.65 45.08 3.84L45.08 7.78C44.48 6.97 43.53 6.44 42.45 6.44C40.60 6.44 39.13 7.98 39.13 9.88C39.13 11.76 40.60 13.30 42.45 13.30C43.53 13.30 44.48 12.78 45.08 11.97ZM42.45 12.61C41.01 12.61 39.82 11.40 39.82 9.88C39.82 8.36 41.01 7.13 42.45 7.13C43.86 7.13 45.02 8.30 45.08 9.77L45.08 10.00C45.02 11.45 43.86 12.61 42.45 12.61Z"></path></g><!----><!----></svg>